# xmcd CD database file generated by Grip 2.95
# 
# Track frame offsets:
#       180
#       20352
#       40929
#       59596
#       82599
#       101472
#       125469
#       142319
#       161594
#       180289
#       204541
#       221165
#       239822
# 
# Disc length: 3537 seconds
# 
# Revision: 3
# Processed by: cddbd v1.4b42PL1 Copyright (c) Steve Scherf et al.
# Submitted via: Grip 2.95
# 
DISCID=b70dcf0d
DTITLE=Bugs Henderson - have blues... must rock
DYEAR=1900
DGENRE=
TTITLE0=No One Owns The Blues
TTITLE1=Lovin' Yourself
TTITLE2=Chain Me
TTITLE3=Tramp On Your Street
TTITLE4=Look What Love Can Do
TTITLE5=Uncle John
TTITLE6=I Think I'll Just Stay Here and Drink
TTITLE7=My Baby
TTITLE8=Drug Store Blues
TTITLE9=Thirteen Ways
TTITLE10=Have Blues... Must Rock
TTITLE11=Hide Away
TTITLE12=Liner Notes - Music: "I Love You Day"
EXTD=
EXTT0=
EXTT1=
EXTT2=
EXTT3=
EXTT4=
EXTT5=
EXTT6=
EXTT7=
EXTT8=
EXTT9=
EXTT10=
EXTT11=
EXTT12=
PLAYORDER=
